<?xml version="1.0" encoding="UTF-8"?> <!-- Creator: CorelDRAW 2017 --> <svg xmlns="http://www.w3.org/2000/svg" xmlns:xlink="http://www.w3.org/1999/xlink" xml:space="preserve" width="122.854mm" height="122.854mm" version="1.1" style="shape-rendering:geometricPrecision; text-rendering:geometricPrecision; image-rendering:optimizeQuality; fill-rule:evenodd; clip-rule:evenodd" viewBox="0 0 12285.4 12285.4"> <defs> <style type="text/css"> <![CDATA[ .str0 {stroke:#6BB536;stroke-width:28.22;stroke-miterlimit:10} .str1 {stroke:#6BB536;stroke-width:28.22;stroke-linejoin:round;stroke-miterlimit:10} .str2 {stroke:#6BB536;stroke-width:28.22;stroke-linecap:round;stroke-miterlimit:10} .fil0 {fill:none;fill-rule:nonzero} .fil1 {fill:#5B5B5B;fill-rule:nonzero} .fil2 {fill:#6BB536;fill-rule:nonzero} ]]> </style> </defs> <g id="Ebene_x0020_1"> <metadata id="CorelCorpID_0Corel-Layer"></metadata> <polyline class="fil0 str0" points="1408.07,6718.26 1643.24,6718.26 1978.38,6521.93 "></polyline> <polyline class="fil0 str0" points="1607.97,7005.17 1778.48,6854.06 1978.38,6620.12 "></polyline> <polyline class="fil0 str0" points="2086.16,6490.54 2257.92,6584.59 2429.69,6584.59 "></polyline> <polyline class="fil0 str0" points="2525.22,6620.12 2742.73,6718.26 3124.91,6758.54 "></polyline> <polyline class="fil0 str0" points="3054.36,7102.01 2783.9,6978.54 2730.98,7305.92 "></polyline> <line class="fil0 str0" x1="2257.92" y1="7466.53" x2="2373.05" y2="7172.57"></line> <polyline class="fil0 str0" points="1978.38,6402.34 2038.52,6073.06 1878.42,5801.93 "></polyline> <polyline class="fil0 str0" points="1769.83,6861.71 1793.17,7172.57 1958.47,7061.09 "></polyline> <line class="fil0 str0" x1="2109.5" y1="6402.34" x2="2429.69" y2="6537.57"></line> <line class="fil0 str0" x1="2303.67" y1="6784.51" x2="2589.48" y2="6861.71"></line> <line class="fil0 str0" x1="2229.6" y1="6758.54" x2="2086.16" y2="6584.59"></line> <line class="fil0 str0" x1="2620.77" y1="5349.87" x2="3013.21" y2="5279.31"></line> <polyline class="fil0 str0" points="2109.5,5585.79 1847.43,5349.87 1537.41,5279.31 "></polyline> <polyline class="fil0 str0" points="1455.09,5391.04 1719.67,5557.25 1875.82,5761.46 2157.87,5861.39 "></polyline> <polyline class="fil0 str1" points="1793.17,5889.71 1607.97,5679.13 1291.11,5790.32 "></polyline> <polyline class="fil0 str2" points="2038.52,5643.86 2234.09,5696.77 2201.82,5889.71 2678.07,5685 2839.05,5730.3 "></polyline> <polyline class="fil0 str0" points="2489.91,6537.57 2229.6,6148.37 2320.96,5961.36 2692.76,5926.08 2847.91,5732.78 "></polyline> <line class="fil0 str0" x1="2114.27" y1="6861.71" x2="2038.52" y2="6643.4"></line> <line class="fil0 str0" x1="2269.59" y1="6812.63" x2="2257.92" y2="6584.59"></line> <line class="fil0 str0" x1="2489.91" y1="6812.63" x2="2489.91" y2="6671.54"></line> <line class="fil0 str0" x1="2589.48" y1="5419.69" x2="2462.9" y2="5067.64"></line> <polyline class="fil0 str0" points="2157.87,5557.25 2114.27,5349.87 2373.05,5461.6 2257.92,5238.16 1931.34,5020.63 "></polyline> <line class="fil0 str0" x1="2560.47" y1="5432.55" x2="2678.07" y2="5685"></line> <polyline class="fil0 str0" points="2525.22,6537.57 2816.99,6202.43 3207.23,6102.13 "></polyline> <line class="fil0 str0" x1="3183.7" y1="5961.36" x2="2954.39" y2="5961.36"></line> <line class="fil0 str0" x1="2847.91" y1="5732.78" x2="3271.89" y2="5614.45"></line> <line class="fil0 str0" x1="1847.43" y1="5349.87" x2="1983.12" y2="5238.16"></line> <line class="fil0 str0" x1="1983.12" y1="5238.16" x2="1793.17" y2="5067.64"></line> <line class="fil0 str2" x1="1607.97" y1="5679.13" x2="1408.07" y2="5502.75"></line> <line class="fil0 str0" x1="1719.67" y1="5557.25" x2="2038.52" y2="5614.45"></line> <line class="fil0 str0" x1="2257.92" y1="5238.16" x2="2462.9" y2="5067.64"></line> <line class="fil0 str0" x1="2462.9" y1="5067.64" x2="2489.91" y2="4850.11"></line> <line class="fil0 str0" x1="2229.6" y1="6148.37" x2="2038.52" y2="6073.06"></line> <polyline class="fil0 str0" points="2692.76,5926.08 2954.39,5961.36 2816.99,6202.43 "></polyline> <polyline class="fil0 str0" points="2742.73,6718.26 2589.48,6861.71 2783.9,6978.54 "></polyline> <line class="fil0 str0" x1="2373.05" y1="7172.57" x2="2303.67" y2="6949.6"></line> <line class="fil0 str0" x1="2373.05" y1="7172.57" x2="2525.22" y2="6902.09"></line> <line class="fil0 str0" x1="1958.47" y1="7061.09" x2="2229.6" y2="6949.6"></line> <line class="fil0 str2" x1="1958.47" y1="7047.65" x2="2007.79" y2="6511.87"></line> <line class="fil0 str0" x1="1652.23" y1="6713" x2="1547.69" y2="6949.6"></line> <line class="fil0 str0" x1="2234.09" y1="5696.77" x2="2395.45" y2="5585.79"></line> <line class="fil0 str0" x1="1983.12" y1="5238.16" x2="2114.27" y2="5349.87"></line> <path class="fil1" d="M4401.21 6485.21l111.27 0c101.74,0 174.83,-28.87 219.35,-86.66 44.52,-57.73 66.78,-143.82 66.78,-258.31 0,-118.65 -23.6,-203.19 -70.73,-253.52 -47.2,-50.3 -120.01,-75.48 -218.56,-75.48l-108.11 0 0 673.97zm0 371.93l0 904.47 -432.36 0 0 -2323.92 565.89 0c239.46,0 416.17,56.71 530.15,170.08 113.88,113.38 170.85,286.67 170.85,519.77 0,293.55 -99.1,498.6 -297.22,615.15l446.62 1018.92 -462.56 0 -367.17 -904.47 -154.2 0z"></path> <path class="fil1" d="M5977.14 6733.19l0 650.11 217.73 0c90.07,0 157.09,-27.56 201.08,-82.68 43.96,-55.08 65.97,-140.38 65.97,-255.9 0,-207.67 -91.15,-311.53 -273.4,-311.53l-211.38 0zm0 -360.85l198.68 0c91.12,0 155.19,-24.36 192.34,-73.14 37.07,-48.72 55.59,-121.3 55.59,-217.76 0,-96.39 -21.16,-165.54 -63.57,-207.43 -42.4,-41.86 -109.15,-62.77 -200.23,-62.77l-182.81 0 0 561.1zm-406.93 -934.65l592.88 0c241.61,0 417.47,46.88 527.72,140.66 110.24,93.77 165.31,242.94 165.31,447.45 0,134.6 -29.14,247.19 -87.42,337.79 -58.28,90.61 -137.76,145.45 -238.41,164.54l0 15.88c131.38,32.86 226.24,94.32 284.52,184.38 58.24,90.09 87.42,209.85 87.42,359.25 0,210.88 -56.45,375.93 -169.27,495.13 -112.85,119.24 -267.3,178.84 -463.37,178.84l-699.38 0 0 -2323.92z"></path> <polygon class="fil1" points="7219.58,7761.61 7626.52,7761.61 7626.52,5437.69 7219.58,5437.69 "></polygon> <polygon class="fil1" points="8737.34,7761.61 8306.56,7761.61 8306.56,5817.58 7861.46,5817.58 7861.46,5437.69 9182.37,5437.69 9182.37,5817.58 8737.34,5817.58 "></polygon> <path class="fil2" d="M2458.02 6749.17c5.63,0 9.62,-0.94 14.82,-2.34 1.09,-0.28 3.03,-2.18 4.14,-2.35 6.41,-0.89 14.71,3.04 19.88,-0.69 2.92,-2.1 6.9,-1.86 10.63,-3.14 3.19,-1.1 6.01,-3.81 9.7,-4.37 7.27,-1.07 9.28,-9.2 15.37,-13.23 5.82,-3.85 14.37,-4.34 15.72,-13.06 0.89,-5.68 17.57,-6.09 17.42,-13.05 -0.17,-7.14 9.19,-7.76 13.77,-13.37 3.27,-4.03 3.2,-10.26 4.69,-15.91 0.48,-1.83 2.43,-3.58 3,-5.17 4.42,-12.61 -2.7,-1.17 3.43,-15.82 0,0 3.2,-4.13 3.77,-6.13 0.35,-1.24 -0.94,-5.34 -0.71,-5.68 1.97,-2.69 5.12,-5.07 4.55,-10.88 -0.61,-6.52 1.76,-14.13 1.76,-16.75 0,-2.59 -2.37,-10.24 -1.76,-16.74 0.57,-5.79 -2.72,-10.68 -4.69,-13.37 -0.23,-0.34 1.35,-3.62 0.99,-4.86 -0.58,-2 -4.75,-6.69 -4.75,-6.69 -4.94,-15.84 5.21,-6.2 -1.78,-15.91 -0.99,-1.38 -3.33,-1 -3.81,-2.85 -1.49,-5.63 -1.42,-11.9 -4.69,-15.89 -4.58,-5.61 -13.94,-6.28 -13.77,-13.4 0.15,-6.96 -16.53,-7.37 -17.42,-13.06 -1.35,-8.68 -9.9,-9.2 -15.72,-13.05 -6.09,-4.04 -8.1,-12.13 -15.37,-13.23 -3.69,-0.55 -6.51,-3.24 -9.7,-4.34 -3.73,-1.28 -7.71,-1.08 -10.63,-3.17 -5.17,-3.69 -13.47,0.23 -19.88,-0.69 -1.11,-0.14 -3.05,-2.04 -4.14,-2.34 -5.2,-1.42 -9.19,-2.35 -14.82,-2.35 -5.63,0 -9.63,0.93 -14.82,2.35 -1.09,0.3 -3.04,2.2 -4.17,2.34 -6.39,0.92 -14.66,-3 -19.84,0.69 -2.94,2.09 -6.92,1.89 -10.65,3.17 -3.2,1.1 -6.01,3.79 -9.7,4.34 -7.28,1.1 -9.29,9.19 -15.37,13.23 -5.81,3.85 -14.39,4.37 -15.72,13.05 -0.88,5.69 -17.57,6.1 -17.42,13.06 0.18,7.12 -9.21,7.79 -13.77,13.4 -3.27,3.99 -3.19,10.26 -4.68,15.89 -0.49,1.85 -2.44,3.6 -3.01,5.19 -4.43,12.61 1.77,3.45 -4.37,18.09 0,0 -2.27,1.86 -2.83,3.86 -0.35,1.24 1.08,2.83 0.84,3.17 -1.95,2.69 -5.25,7.58 -4.69,13.37 0.62,6.5 -1.73,14.15 -1.73,16.74 0,2.62 2.35,10.23 1.73,16.75 -0.56,5.81 2.74,10.7 4.69,13.39 0.24,0.34 -1.19,6.1 -0.84,7.37 0.56,1.97 5.14,5.65 5.14,5.65 2.72,6.55 4.08,6.89 2.06,12.26 -1.84,4.9 -2.57,4.87 6.03,11.21 3.18,2.34 0.15,6.48 1.66,9.71 3.09,6.55 13.95,6.23 13.77,13.37 -0.15,6.96 16.54,7.37 17.42,13.05 1.33,8.72 9.91,9.21 15.72,13.06 6.08,4.03 8.09,12.16 15.37,13.23 3.69,0.56 6.5,3.27 9.7,4.37 3.73,1.28 7.71,1.04 10.65,3.14 5.18,3.73 13.45,-0.2 19.84,0.69 1.13,0.17 3.08,2.07 4.17,2.35 5.19,1.4 9.19,2.34 14.82,2.34z"></path> <path class="fil2" d="M2033.64 6713c7.57,0 12.93,-1.25 19.94,-3.15 1.48,-0.41 4.1,-2.96 5.58,-3.17 8.66,-1.19 19.78,4.07 26.74,-0.92 3.97,-2.83 9.31,-2.52 14.33,-4.24 4.3,-1.48 8.1,-5.13 13.08,-5.86 9.78,-1.47 12.5,-12.4 20.67,-17.8 7.85,-5.21 19.37,-5.86 21.18,-17.57 1.2,-7.69 23.66,-8.2 23.45,-17.57 -0.22,-9.62 12.36,-10.48 18.54,-18.06 4.39,-5.37 4.29,-13.82 6.29,-21.4 0.65,-2.44 3.3,-4.82 4.05,-6.98 5.97,-16.99 -3.6,-1.59 4.62,-21.27 0,0 4.33,-5.58 5.09,-8.27 0.48,-1.68 -1.28,-7.19 -0.95,-7.64 2.63,-3.65 6.89,-6.83 6.13,-14.64 -0.84,-8.75 2.34,-19.02 2.34,-22.53 0,-3.51 -3.18,-13.78 -2.34,-22.53 0.76,-7.83 -3.7,-14.4 -6.33,-18.05 -0.33,-0.46 1.82,-4.82 1.33,-6.52 -0.76,-2.69 -6.4,-8.99 -6.4,-8.99 -6.61,-21.33 7.04,-8.38 -2.38,-21.42 -1.34,-1.86 -4.51,-1.38 -5.16,-3.86 -2,-7.58 -1.9,-15.99 -6.29,-21.4 -6.18,-7.54 -18.76,-8.41 -18.54,-18.02 0.21,-9.37 -22.25,-9.92 -23.45,-17.56 -1.81,-11.72 -13.33,-12.41 -21.18,-17.62 -8.17,-5.4 -10.89,-16.33 -20.67,-17.77 -4.98,-0.76 -8.78,-4.38 -13.08,-5.87 -5.02,-1.73 -10.36,-1.41 -14.33,-4.26 -6.96,-4.97 -18.08,0.3 -26.74,-0.92 -1.48,-0.21 -4.1,-2.76 -5.58,-3.16 -7.01,-1.89 -12.37,-3.16 -19.94,-3.16 -7.58,0 -12.95,1.27 -19.97,3.16 -1.46,0.4 -4.06,2.95 -5.58,3.16 -8.64,1.22 -19.77,-4.05 -26.73,0.92 -3.94,2.85 -9.32,2.53 -14.33,4.26 -4.29,1.49 -8.09,5.11 -13.08,5.87 -9.78,1.44 -12.5,12.37 -20.67,17.77 -7.84,5.21 -19.37,5.9 -21.18,17.62 -1.17,7.64 -23.65,8.19 -23.43,17.56 0.22,9.61 -12.38,10.48 -18.53,18.02 -4.4,5.41 -4.31,13.82 -6.31,21.4 -0.65,2.48 -3.31,4.85 -4.07,6.98 -5.95,16.99 2.39,4.66 -5.85,24.37 0,0 -3.08,2.51 -3.82,5.17 -0.49,1.67 1.44,3.81 1.11,4.27 -2.63,3.65 -7.07,10.22 -6.31,18.05 0.86,8.75 -2.35,19.02 -2.35,22.53 0,3.51 3.21,13.78 2.35,22.53 -0.76,7.81 3.68,14.4 6.31,18.01 0.33,0.46 -1.6,8.24 -1.11,9.92 0.74,2.66 6.89,7.63 6.89,7.63 3.68,8.82 5.5,9.26 2.78,16.49 -2.48,6.61 -3.46,6.55 8.12,15.09 4.29,3.17 0.22,8.75 2.26,13.06 4.13,8.82 18.75,8.44 18.53,18.06 -0.22,9.37 22.26,9.88 23.43,17.57 1.81,11.71 13.34,12.36 21.18,17.57 8.17,5.4 10.89,16.33 20.67,17.8 4.99,0.73 8.79,4.38 13.08,5.86 5.01,1.72 10.39,1.41 14.33,4.24 6.96,4.99 18.09,-0.27 26.73,0.92 1.52,0.21 4.12,2.76 5.58,3.17 7.02,1.9 12.39,3.15 19.97,3.15z"></path> <path class="fil2" d="M2224.72 7005.17c5.69,0 9.72,-0.92 14.98,-2.37 1.09,-0.28 3.06,-2.21 4.19,-2.35 6.5,-0.93 14.86,3.04 20.06,-0.73 2.97,-2.09 7.01,-1.88 10.78,-3.17 3.21,-1.1 6.08,-3.85 9.81,-4.4 7.35,-1.11 9.37,-9.31 15.51,-13.37 5.89,-3.89 14.56,-4.37 15.91,-13.19 0.88,-5.76 17.77,-6.18 17.6,-13.2 -0.18,-7.2 9.27,-7.86 13.9,-13.54 3.3,-4.03 3.24,-10.37 4.74,-16.05 0.49,-1.86 2.47,-3.62 3.03,-5.24 4.48,-12.74 -2.71,-1.21 3.48,-15.98 0,0 3.25,-4.2 3.82,-6.2 0.35,-1.28 -0.96,-5.42 -0.71,-5.76 1.96,-2.72 5.15,-5.1 4.59,-10.98 -0.63,-6.55 1.76,-14.27 1.76,-16.93 0,-2.61 -2.39,-10.33 -1.76,-16.91 0.56,-5.85 -2.77,-10.78 -4.73,-13.54 -0.26,-0.34 1.34,-3.61 0.98,-4.89 -0.56,-2 -4.81,-6.75 -4.81,-6.75 -4.96,-15.99 5.29,-6.28 -1.79,-16.09 -0.99,-1.38 -3.37,-1.03 -3.86,-2.87 -1.5,-5.71 -1.44,-12.01 -4.74,-16.08 -4.63,-5.69 -14.08,-6.31 -13.9,-13.54 0.17,-7.03 -16.72,-7.44 -17.6,-13.19 -1.35,-8.79 -10.02,-9.27 -15.91,-13.2 -6.14,-4.07 -8.16,-12.27 -15.51,-13.37 -3.73,-0.55 -6.6,-3.26 -9.81,-4.37 -3.77,-1.31 -7.81,-1.07 -10.78,-3.21 -5.2,-3.72 -13.56,0.21 -20.06,-0.69 -1.13,-0.16 -3.1,-2.06 -4.19,-2.37 -5.26,-1.41 -9.29,-2.38 -14.98,-2.38 -5.68,0 -9.71,0.97 -14.99,2.38 -1.08,0.31 -3.05,2.21 -4.18,2.37 -6.49,0.9 -14.85,-3.03 -20.08,0.69 -2.96,2.14 -6.98,1.9 -10.76,3.21 -3.22,1.11 -6.07,3.82 -9.8,4.37 -7.35,1.1 -9.38,9.3 -15.51,13.37 -5.9,3.93 -14.55,4.41 -15.92,13.2 -0.88,5.75 -17.75,6.16 -17.58,13.19 0.16,7.23 -9.29,7.85 -13.94,13.54 -3.27,4.07 -3.23,10.37 -4.72,16.08 -0.48,1.84 -2.47,3.63 -3.03,5.24 -4.48,12.75 1.77,3.49 -4.41,18.26 0,0 -2.32,1.9 -2.88,3.9 -0.36,1.27 1.1,2.86 0.84,3.2 -1.96,2.76 -5.28,7.69 -4.74,13.54 0.65,6.58 -1.75,14.3 -1.75,16.91 0,2.66 2.4,10.38 1.75,16.93 -0.54,5.88 2.78,10.81 4.74,13.53 0.26,0.34 -1.2,6.17 -0.84,7.44 0.56,2 5.18,5.72 5.18,5.72 2.78,6.65 4.12,6.96 2.11,12.4 -1.88,4.96 -2.61,4.94 6.08,11.34 3.22,2.34 0.17,6.55 1.67,9.78 3.13,6.65 14.1,6.34 13.94,13.54 -0.17,7.02 16.7,7.44 17.58,13.2 1.37,8.82 10.02,9.3 15.92,13.19 6.13,4.06 8.16,12.26 15.51,13.37 3.73,0.55 6.58,3.3 9.8,4.4 3.78,1.29 7.8,1.08 10.76,3.17 5.23,3.77 13.59,-0.2 20.08,0.73 1.13,0.14 3.1,2.07 4.18,2.35 5.28,1.45 9.31,2.37 14.99,2.37z"></path> <path class="fil2" d="M2520.35 6949.6c3.78,0 6.48,-0.62 9.96,-1.55 0.73,-0.21 2.04,-1.48 2.8,-1.59 4.33,-0.62 9.88,2.04 13.37,-0.48 1.98,-1.41 4.67,-1.24 7.16,-2.09 2.16,-0.76 4.06,-2.59 6.55,-2.94 4.89,-0.76 6.26,-6.2 10.34,-8.91 3.91,-2.6 9.67,-2.94 10.59,-8.8 0.58,-3.81 11.81,-4.09 11.72,-8.78 -0.13,-4.79 6.17,-5.23 9.26,-9.02 2.19,-2.69 2.15,-6.89 3.15,-10.68 0.32,-1.24 1.66,-2.41 2.03,-3.52 2.97,-8.47 -1.82,-0.79 2.3,-10.61 0,0 2.16,-2.8 2.55,-4.13 0.23,-0.87 -0.65,-3.63 -0.47,-3.83 1.31,-1.82 3.43,-3.45 3.05,-7.33 -0.42,-4.39 1.18,-9.51 1.18,-11.28 0,-1.75 -1.6,-6.89 -1.18,-11.25 0.38,-3.9 -1.85,-7.21 -3.16,-9.03 -0.15,-0.2 0.89,-2.41 0.66,-3.28 -0.38,-1.31 -3.21,-4.48 -3.21,-4.48 -3.31,-10.64 3.54,-4.16 -1.18,-10.7 -0.67,-0.94 -2.25,-0.69 -2.57,-1.93 -1,-3.79 -0.96,-8 -3.15,-10.68 -3.09,-3.8 -9.39,-4.21 -9.26,-9.03 0.09,-4.69 -11.14,-4.96 -11.72,-8.79 -0.92,-5.86 -6.68,-6.2 -10.59,-8.78 -4.08,-2.73 -5.45,-8.17 -10.34,-8.89 -2.49,-0.38 -4.39,-2.2 -6.55,-2.96 -2.49,-0.87 -5.18,-0.69 -7.16,-2.11 -3.49,-2.51 -9.04,0.14 -13.37,-0.48 -0.76,-0.1 -2.07,-1.38 -2.8,-1.59 -3.48,-0.92 -6.18,-1.54 -9.96,-1.54 -3.79,0 -6.49,0.62 -9.99,1.54 -0.73,0.21 -2.04,1.49 -2.78,1.59 -4.33,0.62 -9.88,-2.03 -13.37,0.48 -1.99,1.42 -4.66,1.24 -7.18,2.11 -2.14,0.76 -4.04,2.58 -6.53,2.96 -4.89,0.72 -6.24,6.16 -10.34,8.89 -3.92,2.58 -9.7,2.92 -10.58,8.78 -0.59,3.83 -11.84,4.1 -11.73,8.79 0.11,4.82 -6.17,5.23 -9.26,9.03 -2.2,2.68 -2.15,6.89 -3.15,10.68 -0.32,1.24 -1.66,2.43 -2.03,3.51 -2.97,8.47 1.19,2.3 -2.94,12.15 0,0 -1.52,1.29 -1.91,2.6 -0.23,0.85 0.73,1.93 0.57,2.13 -1.32,1.82 -3.54,5.13 -3.16,9.03 0.43,4.36 -1.17,9.5 -1.17,11.25 0,1.77 1.6,6.89 1.17,11.28 -0.38,3.88 1.84,7.19 3.16,9.02 0.16,0.21 -0.8,4.1 -0.57,4.96 0.39,1.31 3.46,3.8 3.46,3.8 1.83,4.41 2.74,4.64 1.39,8.26 -1.24,3.31 -1.72,3.27 4.05,7.54 2.15,1.56 0.11,4.34 1.13,6.52 2.07,4.41 9.37,4.23 9.26,9.02 -0.11,4.69 11.14,4.97 11.73,8.78 0.88,5.86 6.66,6.2 10.58,8.8 4.1,2.71 5.45,8.15 10.34,8.91 2.49,0.35 4.39,2.18 6.53,2.94 2.52,0.85 5.19,0.68 7.18,2.09 3.49,2.52 9.04,-0.14 13.37,0.48 0.74,0.11 2.05,1.38 2.78,1.59 3.5,0.93 6.2,1.55 9.99,1.55z"></path> <path class="fil1" d="M3086.77 5821.68l0 691.22c0,436.15 -356.88,793.02 -793.04,793.02l0 0c-436.19,0 -793.04,-356.87 -793.04,-793.02l0 -729.03c0,-436.17 356.85,-793.05 793.04,-793.05l0 0c436.16,0 793.04,356.88 793.04,793.05l0 37.81zm-754.7 -1322.23l-76.68 0c-690.91,20.36 -1246.71,588.67 -1246.71,1284.42l0 729.03c0,708.55 576.48,1285.03 1285.07,1285.03 708.56,0 1285.02,-576.48 1285.02,-1285.03l0 -729.03c0,-695.75 -555.8,-1264.06 -1246.7,-1284.42z"></path> <path class="fil2" d="M1746.93 5932.12l0 0c-20.93,-16.58 -24.51,-47.24 -7.92,-68.16l145.89 -184.29c16.56,-20.92 47.24,-24.47 68.14,-7.9l0 0c20.9,16.54 24.48,47.2 7.93,68.12l-145.93 184.3c-16.55,20.91 -47.21,24.48 -68.11,7.93z"></path> <path class="fil2" d="M1960.83 5668.8l0 0c-13.36,-23.09 -5.36,-52.91 17.76,-66.24l203.55 -117.53c23.1,-13.36 52.92,-5.37 66.27,17.73l0 0c13.32,23.12 5.33,52.94 -17.76,66.27l-203.55 117.53c-23.13,13.33 -52.93,5.36 -66.27,-17.76z"></path> <path class="fil2" d="M2425.31 5719.59l0 0c-26.1,5.61 -52.01,-11.17 -57.59,-37.27l-49.18 -229.83c-5.58,-26.1 11.17,-52.01 37.26,-57.59l0 0c26.09,-5.59 52.01,11.18 57.59,37.28l49.19 229.84c5.59,26.09 -11.19,51.99 -37.27,57.57z"></path> <path class="fil2" d="M2481.52 5549.86l0 0c-20.91,-16.55 -24.47,-47.21 -7.93,-68.13l145.92 -184.3c16.56,-20.9 47.22,-24.47 68.15,-7.92l0 0c20.9,16.58 24.47,47.24 7.91,68.15l-145.91 184.29c-16.58,20.92 -47.22,24.48 -68.14,7.91z"></path> <path class="fil2" d="M2090.31 5798.77l0 0c14.6,-22.33 44.84,-28.63 67.16,-14.01l196.65 128.77c22.31,14.62 28.61,44.84 14,67.16l0 0c-14.62,22.3 -44.83,28.61 -67.15,14l-196.66 -128.76c-22.3,-14.62 -28.61,-44.84 -14,-67.16z"></path> <polygon class="fil1" points="10163.94,7761.61 10570.88,7761.61 10570.88,5437.69 10163.94,5437.69 "></polygon> <polygon class="fil1" points="10887.12,7761.61 11294.06,7761.61 11294.06,5437.69 10887.12,5437.69 "></polygon> </g> </svg> 